<svg width="30" height="30" viewBox="0 0 30 30" fill="none" xmlns="http://www.w3.org/2000/svg">
<path d="M15 30C23.2843 30 30 23.2843 30 15C30 6.71573 23.2843 0 15 0C6.71573 0 0 6.71573 0 15C0 23.2843 6.71573 30 15 30Z" fill="#F6DBD0"/>
<mask id="mask0_2469_2490" style="mask-type:luminance" maskUnits="userSpaceOnUse" x="0" y="0" width="30" height="30">
<path d="M15 30C23.2843 30 30 23.2843 30 15C30 6.71573 23.2843 0 15 0C6.71573 0 0 6.71573 0 15C0 23.2843 6.71573 30 15 30Z" fill="white"/>
</mask>
<g mask="url(#mask0_2469_2490)">
<path d="M19.3669 12.6685C19.3669 12.6685 19.4494 15.3298 20.0584 16.7984C20.6674 18.2638 21.4699 19.7863 20.4168 21.1407L13.6099 18.1972L19.3637 12.6685H19.3669Z" fill="#09182E"/>
<path d="M12.8517 17.6675L17.9712 18.8284C17.9712 18.8284 20.5436 19.1615 21.9266 21.8449L27.1602 29.7367C27.9247 30.8912 27.6804 32.436 26.5956 33.2987C25.4284 34.2249 23.7282 34.0156 22.821 32.8356L22.009 31.7794C22.009 31.7794 21.8441 33.5208 20.68 34.6278L20.182 41.7106H5.1027V34.4089C5.1027 34.4089 2.8887 27.9065 2.39071 23.2311C2.39071 23.2311 2.35265 21.6165 3.85931 20.4398C4.30655 20.0877 4.82675 19.8371 5.37549 19.6912L12.8485 17.6739L12.8517 17.6675Z" fill="#EC6625"/>
<path d="M17.5556 12.2721L16.9465 19.577L17.2066 24.0336C17.2352 24.5284 17.2193 25.0232 17.1559 25.5117L16.9434 27.1864L16.1885 24.7599C15.9728 24.0716 15.6619 23.4214 15.2623 22.8219L13.4289 20.0718L9.98736 17.6643L9.66699 8.86545L17.5524 12.2689L17.5556 12.2721Z" fill="#EFB899"/>
<path d="M11.8274 14.9777L10.6602 9.3L17.5527 12.2753L16.9437 19.5802L17.0865 22.0035L14.8217 20.0623C13.2865 18.746 12.2334 16.9602 11.8274 14.9809V14.9777Z" fill="#D58369"/>
<path d="M20.667 8.32941C20.667 8.32941 21.2094 8.98599 21.3109 9.47447C21.4124 9.96294 20.9874 12.9287 20.9874 12.9287C20.9874 12.9287 20.4196 14.6288 19.062 14.5242L19.5029 8.71638L20.6638 8.32941H20.667Z" fill="#FBF0EA"/>
<path d="M19.2303 5.6999C19.2303 5.6999 19.2493 5.71893 19.2589 5.72845C19.8996 6.35649 20.2263 7.23828 20.166 8.13593L19.7251 14.6352C19.6807 15.2981 19.4333 15.9293 19.021 16.4495L18.7989 16.7287C18.3897 17.2425 17.8093 17.5978 17.1654 17.7278L16.5151 17.861C15.9696 17.9721 15.4018 17.9181 14.8848 17.7056L13.0165 16.938C11.586 16.3512 10.5963 15.0222 10.4441 13.4838L10.0444 9.47765C10.0444 9.47765 11.6811 4.67537 17.1432 4.83397C17.9235 4.85617 18.6689 5.16067 19.2303 5.70307V5.6999Z" fill="#EFB899"/>
<path d="M11.3481 10.5307L12.2394 12.9287C12.2394 12.9287 13.229 15.3964 12.306 16.5605L10.0444 15.1649L11.3449 10.5307H11.3481Z" fill="#D58369"/>
<path d="M16.027 17.1822L16.0587 16.8968L14.5425 16.7318C14.0065 16.6716 13.5053 16.4591 13.0898 16.1101L10.7426 14.1404L10.5586 14.3624L12.9058 16.3322C13.3626 16.716 13.9177 16.9539 14.5108 17.0173L16.027 17.1822Z" fill="#FCF2EB"/>
<path d="M16.1731 17.4106C16.5743 17.4106 16.8995 17.253 16.8995 17.0585C16.8995 16.8641 16.5743 16.7065 16.1731 16.7065C15.772 16.7065 15.4468 16.8641 15.4468 17.0585C15.4468 17.253 15.772 17.4106 16.1731 17.4106Z" fill="#FBF0EA"/>
<path d="M17.1528 5.64601C17.1528 5.64601 13.3972 7.25735 12.6613 8.31994C11.9255 9.38253 11.5417 10.0867 11.5258 10.7591L11.0944 15.1649V18.1434L4.90283 19.8467C4.90283 19.8467 6.22552 18.1275 6.58395 16.0531C6.94238 13.9786 8.92165 6.68006 8.92165 6.68006C8.92165 6.68006 9.04536 3.63184 12.3124 2.4963C15.5763 1.36075 16.3979 2.19179 16.3979 2.19179C16.3979 2.19179 18.5294 2.14421 19.6396 3.66356C20.7497 5.17974 21.4666 7.57771 20.9559 8.55149C20.4452 9.52527 20.0138 10.4166 20.0138 10.4166L20.1154 8.9226C20.1566 8.29456 19.9853 7.66969 19.6237 7.15267C19.1384 6.45802 18.32 5.64918 17.1528 5.64918V5.64601Z" fill="#09182E"/>
<path d="M10.0414 8.71951L10.6789 8.73854C10.6789 8.73854 11.2657 8.97009 11.345 9.53787C11.4243 10.1056 11.824 13.1158 11.824 13.1158C11.824 13.1158 11.8652 15.0126 9.84473 14.9396L10.0382 8.72268L10.0414 8.71951Z" fill="#F2D2BF"/>
<path d="M9.67039 8.08832C9.67039 8.08832 10.3048 8.28815 10.6822 8.73539C10.8281 8.90984 10.9169 9.12236 10.9423 9.34757L11.3325 12.7542C11.3325 12.7542 11.5386 14.0737 10.5014 14.7969C10.5014 14.7969 9.52765 15.1839 9.09627 14.521C8.72198 13.95 8.51581 10.3975 8.46823 9.43004C8.45237 9.12553 8.53484 8.82103 8.71247 8.57045C8.89009 8.31987 9.18825 8.08832 9.67356 8.08514L9.67039 8.08832Z" fill="#FBF0EA"/>
<path d="M11.0944 15.1649L11.475 16.9665C11.5448 17.2964 11.6716 17.6136 11.8524 17.8991C12.1728 18.4097 12.6708 19.355 12.6613 20.2463C12.6613 20.2463 8.85498 17.4867 8.82644 17.4328C8.79789 17.3789 11.0944 15.1649 11.0944 15.1649Z" fill="#D58369"/>
<path d="M10.0446 27.1897L13.2926 27.989L12.9596 21.6547C12.9596 21.6547 12.9881 19.9958 11.8811 19.3582L10.4157 17.0617L10.8852 15.8437C10.8852 15.8437 11.4117 16.4527 11.8272 15.9262C11.8272 15.9262 12.1476 16.0404 12.3379 15.8279C12.4108 15.7454 12.395 15.6217 12.3062 15.5551L10.9962 14.5718L11.4688 14.4005C11.6432 14.3371 11.7828 14.2007 11.8431 14.0262C11.8431 14.0262 11.8431 14.0199 11.8462 14.0167C11.9192 13.8042 11.7289 13.5917 11.5069 13.6361L10.2761 13.8835C10.2761 13.8835 10.4506 13.6265 10.4918 13.3601C10.5204 13.1666 10.2888 13.0397 10.1429 13.1698C9.74961 13.5155 9.02324 14.1499 9.00104 14.1309C8.97249 14.1023 7.61808 16.7604 7.61808 16.7604C7.61808 16.7604 7.05031 17.9626 7.43728 18.4891C7.82425 19.0156 10.0922 21.5595 10.0922 21.5595L10.0383 27.1928L10.0446 27.1897Z" fill="#EFB899"/>
<path d="M14.1077 28.3062L10.0444 27.1928C10.0444 27.1928 13.1339 27.5862 14.1077 28.3062Z" fill="#CC5234"/>
<path d="M9.84768 27.4751L9.48926 30.0222L7.05322 23.3802L9.84768 27.4751Z" fill="#D34209"/>
<path d="M20.1758 27.6274C20.1758 27.6274 22.1329 29.8541 22.0091 31.7762C21.9965 31.7889 22.8212 32.8325 22.8212 32.8325C22.8212 32.8325 22.9766 29.6859 20.1758 27.6242V27.6274Z" fill="#D34209"/>
<path d="M19.3672 22.4951C19.3672 22.4951 18.5044 22.4951 18.1048 23.0756C17.7051 23.6561 17.4006 25.0676 17.4006 25.0676L16.9438 27.1864L19.364 22.492L19.3672 22.4951Z" fill="#D34209"/>
<path d="M16.3983 25.4324L14.1082 22.3112C14.1082 22.3112 13.5848 21.8799 13.293 22.1748L13.8607 21.4453C13.8607 21.4453 15.7512 22.9171 16.3983 25.4324Z" fill="#D34209"/>
<path d="M17.6731 13.2141C17.6731 12.9445 17.5082 12.7161 17.2734 12.6241C17.3464 12.5956 17.4257 12.5797 17.5082 12.5797C17.8602 12.5797 18.1457 12.8652 18.1457 13.2173C18.1457 13.5694 17.8602 13.8549 17.5082 13.8549C17.4257 13.8549 17.3464 13.839 17.2734 13.8104C17.5082 13.7153 17.6731 13.4869 17.6731 13.2205V13.2141Z" fill="#D58369"/>
<path d="M15.7701 11.4696C15.9155 11.4696 16.0334 11.2594 16.0334 11.0001C16.0334 10.7409 15.9155 10.5307 15.7701 10.5307C15.6247 10.5307 15.5068 10.7409 15.5068 11.0001C15.5068 11.2594 15.6247 11.4696 15.7701 11.4696Z" fill="#09182E"/>
<path d="M18.8404 11.6916C18.9858 11.6916 19.1037 11.4814 19.1037 11.2222C19.1037 10.9629 18.9858 10.7527 18.8404 10.7527C18.695 10.7527 18.5771 10.9629 18.5771 11.2222C18.5771 11.4814 18.695 11.6916 18.8404 11.6916Z" fill="#09182E"/>
<path d="M18.1709 14.8858L15.7285 14.5844C15.7285 14.5844 16.2836 16.2116 18.1709 14.8858Z" fill="#FBF0EA"/>
<path d="M16.3981 2.18854C16.3981 2.18854 12.7282 1.77302 11.1485 4.15195C9.5721 6.53089 9.84806 8.43721 9.84806 8.43721L9.14072 8.54506C9.14072 8.54506 8.69983 5.81087 10.492 3.54295C12.2841 1.27502 15.7795 1.43996 16.3981 2.18854Z" fill="#FBF0EA"/>
<path d="M16.2902 9.73457C16.2902 9.73457 15.6526 9.44909 14.939 10.0422L15.4021 9.92805C15.6114 9.8773 15.8303 9.87096 16.0428 9.90902L16.4203 9.9788L16.2902 9.73457Z" fill="#09182E"/>
<path d="M18.4816 9.82658C18.4816 9.82658 19.1572 9.64896 19.763 10.3531L19.3253 10.1628C19.1287 10.0772 18.913 10.0359 18.6973 10.0391L18.3135 10.0454L18.4816 9.82341V9.82658Z" fill="#09182E"/>
</g>
</svg>
